<?xml version="1.0" encoding="utf-8"?>
<!-- Generator: Adobe Illustrator 26.3.1, SVG Export Plug-In . SVG Version: 6.00 Build 0)  -->
<svg version="1.1" id="Calque_1" xmlns="http://www.w3.org/2000/svg" xmlns:xlink="http://www.w3.org/1999/xlink" x="0px" y="0px"
	 viewBox="0 0 200 200" style="enable-background:new 0 0 200 200;" xml:space="preserve">
<style type="text/css">
	.st0{display:none;}
	.st1{display:inline;}
	.st2{fill:#2B2B2B;}
	.st3{display:inline;fill:none;stroke:#000000;stroke-miterlimit:10;}
	.st4{fill:#14171C;}
	.st5{display:none;fill:none;stroke:#000000;stroke-miterlimit:10;}
</style>
<g id="Calque_1_-_copie" class="st0">
	<g class="st1">
		<polygon class="st2" points="129.1,0 212.6,0 212.6,200 		"/>
		<path class="st2" d="M-12.4,100c0,21.7,6.2,42,16.8,59.2L-12.6,200V0h61.3C12.4,18.6-12.4,56.4-12.4,100z"/>
		<path class="st2" d="M71,0l-2.1,4.9L10.5,144.7l-6.1,14.5C-6.2,142-12.4,121.7-12.4,100c0-43.6,24.8-81.4,61.1-100H71z"/>
		<polygon class="st2" points="100.3,72.2 154.1,199.8 118.9,199.8 102.8,159.2 63.4,159.2 		"/>
	</g>
	<path class="st3" d="M200,100c0,19.3-5.5,37.4-15,52.6c-9.1,14.7-22,26.9-37.3,35.2c-0.6,0.3-1.2,0.6-1.8,0.9
		c-13.8,7.1-29.4,11.2-46,11.2c-35.9,0-67.4-18.9-85-47.4C5.5,137.4,0,119.3,0,100c0-38.8,22.1-72.4,54.4-89C68,4,83.6,0,100,0
		s32,4,45.6,11C177.9,27.6,200,61.2,200,100z"/>
</g>
<g id="Calque_1_00000070803390361357396680000010898560333160540847_">
	<g>
		<path class="st4" d="M200,100c0,16.1-3.8,31.2-10.5,44.7L131.1,4.9c5,1.7,9.9,3.7,14.5,6.1C177.9,27.6,200,61.2,200,100z"/>
		<path class="st4" d="M68.9,4.9L10.5,144.7C3.8,131.2,0,116.1,0,100c0-38.8,22.1-72.4,54.4-89C59,8.6,63.9,6.6,68.9,4.9z"/>
		<path class="st4" d="M148.8,187.3c-0.4,0.2-0.7,0.4-1.1,0.6c-0.6,0.3-1.2,0.6-1.8,0.9c-8.6,4.4-17.9,7.7-27.7,9.5h0l-15.5-39.2
			H63.4l36.9-87L148.8,187.3z"/>
	</g>
	<path class="st5" d="M200,100c0,16.1-3.8,31.2-10.5,44.7c-1.4,2.7-2.9,5.4-4.5,8c-8.9,14.4-21.4,26.3-36.2,34.6
		c-0.4,0.2-0.7,0.4-1.1,0.6c-0.6,0.3-1.2,0.6-1.8,0.9c-8.6,4.4-17.9,7.7-27.7,9.5h0c-5.9,1.1-12,1.7-18.3,1.7
		c-35.9,0-67.4-18.9-85-47.4c-1.6-2.6-3.1-5.2-4.4-8v0C3.8,131.2,0,116.1,0,100c0-38.8,22.1-72.4,54.4-89c4.7-2.4,9.5-4.4,14.6-6.1
		C78.7,1.7,89.2,0,100,0c10.9,0,21.3,1.7,31.1,4.9c5,1.7,9.9,3.7,14.5,6.1C177.9,27.6,200,61.2,200,100z"/>
</g>
</svg>
