<?xml version="1.0" encoding="UTF-8"?><svg id="a" xmlns="http://www.w3.org/2000/svg" viewBox="0 0 1080 650.26"><defs><style>.b,.c{stroke:#000;stroke-miterlimit:10;}.c{stroke-width:20px;}</style></defs><g><g><path class="b" d="M76.39,88.17h106.64l119.09,252.2,119.87-252.2h105.08v467.04h-113.64v-207.83l-101.97,223.4h-18.68l-101.97-224.96v209.39H76.39V88.17Zm85.62,445.24V249.3h13.23l126.88,274L431.34,249.3h10.9v284.11h56.04V109.97h-56.82l-128.44,273.22h-21.79L163.57,109.97h-58.38v423.45h56.82Z"/><path class="b" d="M670.42,69.75c81.46-28.79,148.61-18.67,211.45,11.96l-50.48,95.44c-39.69-16.52-83.08-20.18-124.92-5.39-78.53,27.75-108.42,104.36-82.23,178.49,28.79,81.46,104.92,112.35,178.31,86.41,77.06-27.23,99.45-83.03,87.34-126.63l-125.5,44.35-32.94-93.21,242.19-85.59,14.78,41.83c45.91,129.9,7.96,265.5-152.03,322.04-139.45,49.28-275.09-19.19-321.52-150.56-46.42-131.37,16.09-269.87,155.53-319.14Zm158.72,449.16c141.64-50.06,176.75-165.65,133.69-287.49l-9.08-25.69-187.88,66.39,18.41,52.11,127.7-45.13c20.53,60.44-.89,142.32-104.38,178.88-94.68,33.46-180.92-12.02-211.26-97.89-30.35-85.87,8.18-175.44,102.85-208.89,38.9-13.75,81.99-13.29,120.34-2.9l28.04-56.14c-50.87-22.48-106.79-24.18-169.9-1.88-122.56,43.31-177.91,169.37-135.64,289,42.28,119.63,164.54,182.92,287.1,139.61Z"/></g><g><path class="b" d="M116.87,118.53h41.25l1.56,3.89h-40.48l-2.33-3.89Zm7.78,15.57h40.48l1.56,3.89h-39.7l-2.34-3.89Zm7.78,15.57h40.48l1.56,3.89h-39.7l-2.34-3.89Zm7.79,15.57h39.7l1.56,3.89h-38.92l-2.33-3.89Zm7.78,15.57h39.7l1.56,3.89h-38.92l-2.34-3.89Zm8.56,15.57h38.14l1.56,3.89h-37.36l-2.34-3.89Zm7.79,15.57h37.36l1.56,3.89h-36.58l-2.33-3.89Zm7.78,15.57h36.58l1.56,3.89h-35.8l-2.34-3.89Zm7.78,15.57h35.81l2.34,3.89h-35.81l-2.34-3.89Zm7.79,15.57h35.81l1.56,3.89h-35.03l-2.33-3.89Zm7.78,15.57h35.03l2.34,3.89h-35.03l-2.34-3.89Zm7.01,15.57h35.81l1.56,3.89h-35.03l-2.34-3.89Zm7.01,15.57h35.81l1.56,3.89h-35.03l-2.33-3.89Zm7.01,15.57h35.8l1.56,3.89h-35.03l-2.33-3.89Zm7.78,15.57h35.81l1.56,3.89h-35.03l-2.34-3.89Zm7.01,15.57h35.81l1.56,3.89h-35.03l-2.34-3.89Zm7.01,15.57h36.58l1.56,3.89h-35.81l-2.33-3.89Zm7.78,15.57h35.03l2.34,3.89h-35.03l-2.34-3.89Zm7.01,15.57h35.81l2.33,3.89h-35.8l-2.34-3.89Zm7.01,15.57h36.58l2.34,3.89h-36.59l-2.33-3.89Zm44.37,15.57l2.33,3.89h-37.36l-2.33-3.89h37.36Zm7.78,15.57l2.34,3.89h-38.14l-2.33-3.89h38.14Zm7.01,15.57l2.33,2.34-1.56,2.33h-35.8l-2.34-4.67h37.36Zm-3.89,15.57l-2.33,3.89h-21.8l-2.33-3.89h26.46Zm-7.01,15.57l-2.33,3.89h-7.79l-2.33-3.89h12.45Zm-3.11,14.01l-3.11,3.89-3.11-3.89h6.23ZM450.02,118.53h40.48v3.89h-40.48v-3.89Zm0,15.57h40.48v3.89h-40.48v-3.89Zm0,15.57h40.48v3.89h-40.48v-3.89Zm0,15.57h40.48v3.89h-40.48v-3.89Zm0,15.57h40.48v3.89h-40.48v-3.89Zm0,15.57h40.48v3.89h-40.48v-3.89Zm0,15.57h40.48v3.89h-40.48v-3.89Zm0,15.57h40.48v3.89h-40.48v-3.89Zm0,15.57h40.48v3.89h-40.48v-3.89Zm0,15.57h40.48v3.89h-40.48v-3.89Zm0,15.57h40.48v3.89h-40.48v-3.89Zm0,15.57h40.48v3.89h-40.48v-3.89Zm0,15.57h40.48v3.89h-40.48v-3.89Zm0,15.57h40.48v3.89h-40.48v-3.89Zm0,15.57h40.48v3.89h-40.48v-3.89Zm0,15.57h40.48v3.89h-40.48v-3.89Zm0,15.57h40.48v3.89h-40.48v-3.89Zm0,15.57h40.48v3.89h-40.48v-3.89Zm0,15.57h40.48v3.89h-40.48v-3.89Zm0,15.57h40.48v3.89h-40.48v-3.89Zm0,15.57h40.48v3.89h-40.48v-3.89Zm0,15.57h40.48v3.89h-40.48v-3.89Zm0,15.57h40.48v3.89h-40.48v-3.89Zm0,15.57h40.48v3.89h-40.48v-3.89Zm0,15.57h40.48v3.89h-40.48v-3.89Zm0,15.57h40.48v3.89h-40.48v-3.89Zm0,15.57h40.48v3.11h-40.48v-3.11Z"/><path class="b" d="M537.7,329.65l41.1-14.52-.17,4.19-40.37,14.26-.56-3.93Zm2.99,15.46l40.37-14.26-.17,4.19-39.63,14-.56-3.93Zm3.72,15.2l39.63-14,.56,3.93-39.63,14.01-.56-3.93Zm4.45,14.94l39.63-14.01,1.3,3.67-39.63,14.01-1.3-3.67Zm5.19,14.68l39.63-14.01,2.03,3.41-39.63,14-2.03-3.41Zm6.65,14.16l39.63-14,2.76,3.15-40.37,14.26-2.03-3.41Zm7.39,13.9l40.37-14.26,2.76,3.15-40.37,14.26-2.77-3.15Zm8.86,13.38l41.1-14.52,2.76,3.15-41.83,14.78-2.03-3.41Zm9.59,13.12l42.57-15.04,3.5,2.89-44.04,15.56-2.03-3.41Zm10.33,12.86l45.5-16.08,4.23,2.63-46.24,16.34-3.5-2.89Zm12.53,12.08l48.44-17.12,4.97,2.37-49.91,17.64-3.5-2.89Zm13.99,11.57l52.84-18.67,4.97,2.37-54.31,19.19-3.5-2.89Zm16.2,10.79l58.71-20.75,5.7,2.11-60.92,21.53-3.5-2.89Zm89.59-15.15l8.64,1.08-75.59,26.71-4.97-2.37,71.92-25.42Zm56.56-3.48c6.13-1.34,16.66-4.24,24.74-7.09,10.27-3.63,16.62-6.7,22.97-9.77l115.22-40.72-3.11,5.22-260.54,92.07-5.7-2.11,106.42-37.61Zm149.77-36.42l-3.84,5.49-220.18,77.81-6.44-1.85,230.45-81.44Zm-21.97,24.27l-8.24,7.04-158.53,56.02-10.84-.3,177.61-62.76Zm-135-183.45l169.54-59.91,1.3,3.67-169.54,59.91-1.29-3.67Zm5.19,14.68l169.54-59.91,1.3,3.67-169.54,59.91-1.3-3.67Zm5.19,14.68l169.54-59.91,1.3,3.67-169.54,59.91-1.3-3.67Zm70.37,189.78c-5.35,3.54-14.63,7.65-32.98,14.13-11.74,4.15-24.48,7.82-35.27,9.99l68.25-24.12Zm24.02-74.53l76.33-26.97-2.37,4.97-80,28.27,6.04-6.26Zm22.7-24.53l59.45-21.01-1.64,4.71-62.38,22.05,4.58-5.75Zm10.96-20.38l51.37-18.15-1.64,4.71-52.11,18.41,2.38-4.97Zm4.84-100.78l39.63-14,1.3,3.67-40.37,14.26-.56-3.93Zm2.45,81.69l45.5-16.08-.9,4.45-46.97,16.6,2.37-4.97Zm1.27-66.49l39.63-14,.56,3.93-40.37,14.26,.17-4.19Zm1.62,48.96l44.04-15.56-.91,4.45-44.77,15.82,1.64-4.71Zm.69-16.75l41.83-14.78-.17,4.19-41.83,14.78,.17-4.19Zm-.05-16.49l40.37-14.26-.17,4.19-39.63,14-.56-3.93Z"/></g></g><line class="c" x1="44.02" y1="614.88" x2="1035.98" y2="614.88"/><line class="c" x1="44.02" y1="614.88" x2="1035.98" y2="614.88"/></svg>